<?xml version="1.0" encoding="UTF-8"?>
<!DOCTYPE svg PUBLIC "-//W3C//DTD SVG 1.1//EN" "http://www.w3.org/Graphics/SVG/1.1/DTD/svg11.dtd">
<!-- Creator: CorelDRAW 2021 (64-Bit) -->
<svg xmlns="http://www.w3.org/2000/svg" xml:space="preserve" width="76.934mm" height="46.081mm" version="1.1" style="shape-rendering:geometricPrecision; text-rendering:geometricPrecision; image-rendering:optimizeQuality; fill-rule:evenodd; clip-rule:evenodd"
viewBox="0 0 7693.4 4608.1"
 xmlns:xlink="http://www.w3.org/1999/xlink"
 xmlns:xodm="http://www.corel.com/coreldraw/odm/2003">
 <defs>
  <style type="text/css">
   <![CDATA[
    .fil2 {fill:none}
    .fil1 {fill:#35435C}
    .fil0 {fill:#35435C;fill-rule:nonzero}
   ]]>
  </style>
 </defs>
 <g id="Слой_x0020_1">
  <metadata id="CorelCorpID_0Corel-Layer"/>
  <g id="_2364248990544">
   <g>
    <path class="fil0" d="M1340.84 3775.63c0,44.9 -15.61,80.37 -46.85,106.4 -31.24,26.04 -75.66,40.19 -133.25,42.47l0 36.12 -58.57 0 0 -36.12c-57.6,-2.93 -102.09,-17.25 -133.49,-42.95 -31.4,-25.71 -47.1,-61.02 -47.1,-105.92 0,-44.9 15.7,-80.29 47.1,-106.16 31.4,-25.87 75.89,-40.27 133.49,-43.2l0 -34.65 58.57 0 0 34.65c57.59,2.93 102.01,17.33 133.25,43.2 31.24,25.87 46.85,61.26 46.85,106.16zm-180.1 99.08c39.05,-2.93 68.66,-12.77 88.83,-29.53 20.18,-16.75 30.26,-40.1 30.26,-70.04 0,-29.93 -10.16,-53.2 -30.5,-69.79 -20.34,-16.6 -49.87,-26.2 -88.59,-28.8l0 198.16zm-177.18 -99.08c0,29.61 10.17,52.71 30.51,69.31 20.34,16.59 49.7,26.52 88.1,29.77l0 -198.16c-79.07,5.86 -118.61,38.88 -118.61,99.08z"/>
    <polygon id="_1" class="fil0" points="1663.96,3893.75 1663.96,3946.95 1407.71,3946.95 1407.71,3605.29 1657.13,3605.29 1657.13,3658.49 1471.16,3658.49 1471.16,3747.32 1636.14,3747.32 1636.14,3799.55 1471.16,3799.55 1471.16,3893.75 "/>
    <path id="_2" class="fil0" d="M2073.47 3893.26l0 126.42 -58.57 0 0 -72.73 -262.11 0 0 72.73 -59.06 0 0.49 -126.42 14.64 0c21.48,-0.98 36.53,-16.84 45.15,-47.59 8.63,-30.75 13.91,-74.76 15.87,-132.03l3.9 -108.35 250.39 0 0 287.97 49.3 0zm-247.95 -173.76c-1.63,44.25 -5.21,81.1 -10.74,110.55 -5.53,29.45 -14.32,50.52 -26.36,63.21l173.27 0 0 -234.28 -133.73 0 -2.44 60.52z"/>
    <polygon id="_3" class="fil0" points="2389.26,3893.75 2389.26,3946.95 2133.01,3946.95 2133.01,3605.29 2382.43,3605.29 2382.43,3658.49 2196.46,3658.49 2196.46,3747.32 2361.44,3747.32 2361.44,3799.55 2196.46,3799.55 2196.46,3893.75 "/>
    <path id="_4" class="fil0" d="M2600.6 3605.29c29.61,0 55.4,4.88 77.37,14.64 21.96,9.76 38.8,23.75 50.51,41.98 11.72,18.22 17.57,39.86 17.57,64.91 0,24.73 -5.85,46.29 -17.57,64.67 -11.71,18.39 -28.55,32.46 -50.51,42.22 -21.97,9.76 -47.76,14.65 -77.37,14.65l-77.12 0 0 98.59 -63.45 0 0 -341.66 140.57 0zm-2.93 189.38c27.66,0 48.65,-5.86 62.97,-17.58 14.32,-11.71 21.47,-28.47 21.47,-50.27 0,-21.8 -7.15,-38.56 -21.47,-50.27 -14.32,-11.72 -35.31,-17.57 -62.97,-17.57l-74.19 0 0 135.69 74.19 0z"/>
    <path id="_5" class="fil0" d="M3015.48 3867.88l-170.83 0 -33.68 79.07 -65.41 0 153.75 -341.66 62.48 0 154.23 341.66 -66.38 0 -34.16 -79.07zm-20.99 -49.79l-64.43 -149.35 -63.94 149.35 128.37 0z"/>
    <polygon id="_6" class="fil0" points="3517.24,3893.26 3517.24,4022.12 3458.67,4022.12 3458.67,3946.95 3168.74,3946.95 3168.74,3605.29 3231.22,3605.29 3231.22,3893.26 3403.51,3893.26 3403.51,3605.29 3466.48,3605.29 3466.48,3893.26 "/>
    <polygon id="_7" class="fil0" points="3575.81,3605.29 3638.29,3605.29 3638.29,3847.87 3821.81,3605.29 3880.87,3605.29 3880.87,3946.95 3818.39,3946.95 3818.39,3704.86 3634.87,3946.95 3575.81,3946.95 "/>
    <path id="_8" class="fil0" d="M4237.66 3605.29l0 341.66 -62.47 0 0 -95.18 -84.44 0 -6.84 0 -63.45 95.18 -66.87 0 73.22 -105.43c-23.76,-8.78 -42.06,-22.69 -54.91,-41.73 -12.86,-19.03 -19.28,-42.06 -19.28,-69.06 0,-26.04 5.85,-48.49 17.57,-67.36 11.71,-18.87 28.31,-33.27 49.78,-43.2 21.48,-9.92 46.7,-14.88 75.66,-14.88l142.03 0zm-140.08 53.69c-26.03,0 -45.96,6.02 -59.79,18.06 -13.83,12.04 -20.75,29.61 -20.75,52.71 0,22.45 6.67,39.78 20.02,51.98 13.34,12.2 32.7,18.3 58.08,18.3l80.05 0 0 -141.05 -77.61 0z"/>
    <polygon id="_9" class="fil0" points="4907.8,3605.29 4907.8,3946.95 4469.01,3946.95 4469.01,3605.29 4531.49,3605.29 4531.49,3893.26 4657.41,3893.26 4657.41,3605.29 4719.89,3605.29 4719.89,3893.26 4845.33,3893.26 4845.33,3605.29 "/>
    <path id="_10" class="fil0" d="M5230.43 3867.88l-170.83 0 -33.68 79.07 -65.41 0 153.75 -341.66 62.48 0 154.23 341.66 -66.38 0 -34.16 -79.07zm-20.99 -49.79l-64.43 -149.35 -63.94 149.35 128.37 0z"/>
    <polygon id="_11" class="fil0" points="5405.65,3605.29 5486.18,3719.5 5566.72,3605.29 5640.91,3605.29 5526.21,3769.29 5650.18,3946.95 5575.02,3946.95 5486.18,3822.49 5397.84,3946.95 5324.63,3946.95 5448.11,3771.73 5332.43,3605.29 "/>
    <polygon id="_12" class="fil0" points="6006.48,3946.95 6006,3720.48 5893.74,3907.9 5865.43,3907.9 5753.17,3723.4 5753.17,3946.95 5693.13,3946.95 5693.13,3605.29 5745.36,3605.29 5880.56,3831.27 6014.29,3605.29 6066.03,3605.29 6067.01,3946.95 "/>
    <path id="_13" class="fil0" d="M6389.15 3867.88l-170.83 0 -33.68 79.07 -65.41 0 153.75 -341.66 62.48 0 154.23 341.66 -66.38 0 -34.16 -79.07zm-20.99 -49.79l-64.43 -149.35 -63.94 149.35 128.37 0z"/>
    <polygon id="_14" class="fil0" points="6772.78,3658.98 6659.55,3658.98 6659.55,3946.95 6596.58,3946.95 6596.58,3658.98 6483.83,3658.98 6483.83,3605.29 6772.78,3605.29 "/>
    <polygon id="_15" class="fil0" points="236.29,4334.69 172.84,4334.69 172.84,4478.68 110.36,4478.68 110.36,4137.02 172.84,4137.02 172.84,4280.03 238.24,4280.03 336.35,4137.02 403.7,4137.02 287.05,4302.48 408.1,4478.68 336.35,4478.68 "/>
    <path id="_16" class="fil0" d="M609.19 4252.69c41,0 72.48,9.2 94.44,27.58 21.97,18.39 32.95,45.64 32.95,81.76 0,37.74 -12.04,66.62 -36.12,86.63 -24.08,20.01 -57.92,30.02 -101.52,30.02l-146.92 0 0 -341.66 62.48 0 0 115.67 94.69 0zm-13.18 177.18c24.73,0 43.76,-5.69 57.1,-17.08 13.35,-11.39 20.02,-27.99 20.02,-49.79 0,-41.32 -25.71,-61.98 -77.12,-61.98l-81.51 0 0 128.85 81.51 0zm189.86 -292.85l62.48 0 0 341.66 -62.48 0 0 -341.66z"/>
    <path id="_17" class="fil0" d="M1085.07 4137.02c29.61,0 55.4,4.88 77.37,14.64 21.96,9.76 38.8,23.75 50.51,41.98 11.72,18.22 17.57,39.86 17.57,64.91 0,24.73 -5.85,46.29 -17.57,64.67 -11.71,18.39 -28.55,32.46 -50.51,42.22 -21.97,9.76 -47.76,14.65 -77.37,14.65l-77.12 0 0 98.59 -63.45 0 0 -341.66 140.57 0zm-2.93 189.38c27.66,0 48.65,-5.86 62.97,-17.58 14.32,-11.71 21.47,-28.47 21.47,-50.27 0,-21.8 -7.15,-38.56 -21.47,-50.27 -14.32,-11.72 -35.31,-17.57 -62.97,-17.57l-74.19 0 0 135.69 74.19 0z"/>
    <polygon id="_18" class="fil0" points="1522.41,4190.71 1353.04,4190.71 1353.53,4478.68 1291.05,4478.68 1291.05,4137.02 1522.89,4137.02 "/>
    <path id="_19" class="fil0" d="M1733.75 4252.69c41,0 72.48,9.2 94.44,27.58 21.97,18.39 32.95,45.64 32.95,81.76 0,37.74 -12.04,66.62 -36.12,86.63 -24.08,20.01 -57.92,30.02 -101.52,30.02l-146.92 0 0 -341.66 62.48 0 0 115.67 94.69 0zm-13.18 177.18c24.73,0 43.76,-5.69 57.1,-17.08 13.35,-11.39 20.02,-27.99 20.02,-49.79 0,-41.32 -25.71,-61.98 -77.12,-61.98l-81.51 0 0 128.85 81.51 0zm189.86 -292.85l62.48 0 0 341.66 -62.48 0 0 -341.66z"/>
    <path id="_20" class="fil0" d="M2248.68 4300.53c20.5,6.51 36.53,17 48.08,31.48 11.55,14.48 17.32,31.48 17.32,51 0,20.5 -6.67,38.32 -20.01,53.45 -13.34,15.13 -31.15,26.76 -53.44,34.9 -22.29,8.13 -46.62,12.2 -72.97,12.2 -22.78,0 -45.64,-3.17 -68.58,-9.52 -22.94,-6.34 -44.17,-15.86 -63.7,-28.55l20.5 -46.37c14.97,10.09 31.57,17.82 49.79,23.19 18.22,5.36 36.28,8.05 54.18,8.05 25.7,0 47.1,-5.04 64.18,-15.13 17.08,-10.09 25.63,-23.92 25.63,-41.49 0,-14.97 -6.19,-26.36 -18.55,-34.17 -12.37,-7.81 -29.45,-11.71 -51.25,-11.71l-79.56 0 0 -49.78 74.68 0c18.87,0 33.68,-3.91 44.41,-11.72 10.74,-7.81 16.11,-18.38 16.11,-31.72 0,-15.95 -7.24,-28.31 -21.72,-37.1 -14.48,-8.79 -32.94,-13.18 -55.4,-13.18 -15.29,0 -31.07,2.2 -47.34,6.59 -16.27,4.39 -31.56,10.82 -45.88,19.28l-20.01 -51.25c17.57,-9.44 36.2,-16.51 55.88,-21.23 19.69,-4.72 39.29,-7.08 58.82,-7.08 25.38,0 48.73,3.91 70.04,11.72 21.31,7.81 38.31,18.95 51,33.43 12.69,14.48 19.04,31.48 19.04,51.01 0,16.92 -4.56,31.72 -13.67,44.41 -9.11,12.69 -21.64,22.45 -37.58,29.29z"/>
    <path id="_21" class="fil0" d="M2543 4483.56c-34.49,0 -65.65,-7.56 -93.47,-22.7 -27.82,-15.13 -49.62,-36.03 -65.41,-62.71 -15.78,-26.69 -23.67,-56.79 -23.67,-90.3 0,-33.52 7.97,-63.62 23.92,-90.3 15.94,-26.68 37.83,-47.59 65.65,-62.72 27.82,-15.13 58.97,-22.69 93.47,-22.69 27.98,0 53.52,4.88 76.63,14.64 23.1,9.76 42.62,23.92 58.57,42.46l-41 38.56c-24.73,-26.68 -55.16,-40.02 -91.28,-40.02 -23.42,0 -44.41,5.12 -62.96,15.37 -18.55,10.25 -33.03,24.49 -43.44,42.71 -10.41,18.22 -15.62,38.89 -15.62,61.99 0,23.1 5.21,43.76 15.62,61.99 10.41,18.22 24.89,32.45 43.44,42.7 18.55,10.25 39.54,15.38 62.96,15.38 36.12,0 66.55,-13.51 91.28,-40.51l41 39.04c-15.95,18.55 -35.55,32.71 -58.82,42.47 -23.26,9.76 -48.89,14.64 -76.87,14.64z"/>
    <polygon id="_22" class="fil0" points="2863.67,4334.69 2800.22,4334.69 2800.22,4478.68 2737.74,4478.68 2737.74,4137.02 2800.22,4137.02 2800.22,4280.03 2865.62,4280.03 2963.73,4137.02 3031.08,4137.02 2914.43,4302.48 3035.48,4478.68 2963.73,4478.68 "/>
    <path id="_23" class="fil0" d="M3236.08 4483.56c-34.81,0 -66.21,-7.56 -94.2,-22.7 -27.98,-15.13 -49.95,-36.11 -65.89,-62.96 -15.94,-26.84 -23.92,-56.86 -23.92,-90.05 0,-33.19 7.98,-63.21 23.92,-90.05 15.94,-26.85 37.91,-47.84 65.89,-62.97 27.99,-15.13 59.39,-22.69 94.2,-22.69 34.82,0 66.22,7.56 94.21,22.69 27.98,15.13 49.94,36.04 65.89,62.72 15.94,26.68 23.91,56.78 23.91,90.3 0,33.51 -7.97,63.61 -23.91,90.3 -15.95,26.68 -37.91,47.58 -65.89,62.71 -27.99,15.14 -59.39,22.7 -94.21,22.7zm0 -55.64c22.78,0 43.28,-5.13 61.5,-15.38 18.23,-10.25 32.54,-24.56 42.96,-42.95 10.41,-18.38 15.61,-38.96 15.61,-61.74 0,-22.78 -5.2,-43.36 -15.61,-61.74 -10.42,-18.39 -24.73,-32.71 -42.96,-42.96 -18.22,-10.25 -38.72,-15.37 -61.5,-15.37 -22.77,0 -43.27,5.12 -61.5,15.37 -18.22,10.25 -32.53,24.57 -42.95,42.96 -10.41,18.38 -15.62,38.96 -15.62,61.74 0,22.78 5.21,43.36 15.62,61.74 10.42,18.39 24.73,32.7 42.95,42.95 18.23,10.25 38.73,15.38 61.5,15.38z"/>
    <path id="_24" class="fil0" d="M3490.87 4137.02l62.48 0 0 242.58 183.52 -242.58 59.06 0 0 341.66 -62.48 0 0 -242.09 -183.52 242.09 -59.06 0 0 -341.66zm151.8 -22.94c-29.29,0 -51.33,-6.02 -66.14,-18.06 -14.8,-12.04 -22.37,-29.61 -22.7,-52.72l44.42 0c0.33,12.04 4.23,21.32 11.71,27.82 7.49,6.51 18.39,9.77 32.71,9.77 13.99,0 24.97,-3.26 32.94,-9.77 7.98,-6.5 12.12,-15.78 12.45,-27.82l43.93 0c-0.33,22.78 -8.06,40.27 -23.19,52.47 -15.13,12.21 -37.17,18.31 -66.13,18.31z"/>
    <path id="_25" class="fil0" d="M4166.87 4137.02c29.61,0 55.4,4.88 77.37,14.64 21.96,9.76 38.8,23.75 50.51,41.98 11.72,18.22 17.57,39.86 17.57,64.91 0,24.73 -5.85,46.29 -17.57,64.67 -11.71,18.39 -28.55,32.46 -50.51,42.22 -21.97,9.76 -47.76,14.65 -77.37,14.65l-77.12 0 0 98.59 -63.45 0 0 -341.66 140.57 0zm-2.93 189.38c27.66,0 48.65,-5.86 62.97,-17.58 14.32,-11.71 21.47,-28.47 21.47,-50.27 0,-21.8 -7.15,-38.56 -21.47,-50.27 -14.32,-11.72 -35.31,-17.57 -62.97,-17.57l-74.19 0 0 135.69 74.19 0z"/>
    <polygon id="_26" class="fil0" points="4628.61,4425.48 4628.61,4478.68 4372.36,4478.68 4372.36,4137.02 4621.78,4137.02 4621.78,4190.22 4435.81,4190.22 4435.81,4279.05 4600.79,4279.05 4600.79,4331.28 4435.81,4331.28 4435.81,4425.48 "/>
    <path id="_27" class="fil0" d="M4855.09 4483.56c-34.49,0 -65.65,-7.56 -93.47,-22.7 -27.82,-15.13 -49.62,-36.03 -65.41,-62.71 -15.78,-26.69 -23.67,-56.79 -23.67,-90.3 0,-33.52 7.97,-63.62 23.92,-90.3 15.94,-26.68 37.83,-47.59 65.65,-62.72 27.82,-15.13 58.97,-22.69 93.47,-22.69 27.98,0 53.52,4.88 76.63,14.64 23.1,9.76 42.62,23.92 58.57,42.46l-41 38.56c-24.73,-26.68 -55.16,-40.02 -91.28,-40.02 -23.42,0 -44.41,5.12 -62.96,15.37 -18.55,10.25 -33.03,24.49 -43.44,42.71 -10.41,18.22 -15.62,38.89 -15.62,61.99 0,23.1 5.21,43.76 15.62,61.99 10.41,18.22 24.89,32.45 43.44,42.7 18.55,10.25 39.54,15.38 62.96,15.38 36.12,0 66.55,-13.51 91.28,-40.51l41 39.04c-15.95,18.55 -35.55,32.71 -58.82,42.47 -23.26,9.76 -48.89,14.64 -76.87,14.64z"/>
    <polygon id="_28" class="fil0" points="5352.45,4137.02 5352.45,4478.68 5289.97,4478.68 5289.97,4190.71 5112.8,4190.71 5112.8,4478.68 5050.32,4478.68 5050.32,4137.02 "/>
    <path id="_29" class="fil0" d="M5741.94 4137.02l-148.37 275.77c-13.02,24.4 -28.56,42.71 -46.62,54.91 -18.06,12.2 -37.66,18.3 -58.81,18.3 -16.92,0 -33.68,-3.58 -50.28,-10.74l15.62 -49.78c13.34,4.23 24.41,6.34 33.19,6.34 20.5,0 37.42,-10.57 50.77,-31.72l5.36 -8.3 -136.17 -254.78 67.84 0 101.04 200.6 103.96 -200.6 62.47 0z"/>
    <path id="_30" class="fil0" d="M5786.36 4137.02l266.01 0 0 52.22 -203.53 0 0 83.95 101.03 0c41,0 72.16,8.55 93.47,25.63 21.31,17.08 31.97,41.73 31.97,73.94 0,33.85 -11.71,59.96 -35.14,78.34 -23.43,18.39 -56.78,27.58 -100.06,27.58l-153.75 0 0 -341.66zm150.33 292.85c24.41,0 42.95,-4.72 55.64,-14.15 12.7,-9.44 19.04,-23.11 19.04,-41 0,-35.15 -24.89,-52.72 -74.68,-52.72l-87.85 0 0 107.87 87.85 0z"/>
    <path id="_31" class="fil0" d="M6427.71 4137.02l0 341.66 -62.47 0 0 -287.97 -134.72 0 -2.93 85.41c-1.62,47.84 -5.53,86.64 -11.71,116.41 -6.18,29.78 -16.11,52.39 -29.77,67.85 -13.67,15.45 -32.54,23.18 -56.62,23.18 -8.46,0 -20.01,-1.63 -34.66,-4.88l4.4 -55.15c4.23,1.3 9.11,1.95 14.64,1.95 19.85,0 33.92,-11.8 42.22,-35.39 8.3,-23.59 13.42,-60.77 15.37,-111.53l4.88 -141.54 251.37 0z"/>
    <polygon id="_32" class="fil0" points="6524.35,4137.02 6586.83,4137.02 6586.83,4379.6 6770.35,4137.02 6829.41,4137.02 6829.41,4478.68 6766.93,4478.68 6766.93,4236.59 6583.41,4478.68 6524.35,4478.68 "/>
    <polygon id="_33" class="fil0" points="7051,4334.69 6987.55,4334.69 6987.55,4478.68 6925.07,4478.68 6925.07,4137.02 6987.55,4137.02 6987.55,4280.03 7052.95,4280.03 7151.06,4137.02 7218.41,4137.02 7101.76,4302.48 7222.81,4478.68 7151.06,4478.68 "/>
    <polygon id="_34" class="fil0" points="7266.73,4137.02 7329.21,4137.02 7329.21,4379.6 7512.73,4137.02 7571.79,4137.02 7571.79,4478.68 7509.31,4478.68 7509.31,4236.59 7325.79,4478.68 7266.73,4478.68 "/>
    <g>
     <path class="fil1" d="M2398.92 1258.9l412.36 -570.85 78.82 151.18 379.25 -219.88 86.74 93.39 219 -298.68 77.52 70.41 185.92 -347.67 156.58 268.69 62.81 -70.23 399.47 472.08 150.8 -164.99 205.06 205.02 166.27 -118.48c105.23,177.54 209.96,355.4 314.86,533.13 -96.53,-86.36 -192.88,-173.08 -289.74,-259.06l-38.25 -208.43 -129 89.3 70.99 79.38 -137.77 -59.92 -90.48 178.58 -80.73 -358.17 -123.9 113.55 20.69 125.41 -131.15 -114.06 -49.82 56.31 -262.67 -526.41 -77.03 115.34 55.16 405.44c-74.89,-170.47 -150.69,-340.73 -224.83,-511.5l14.8 -47.84 -3.18 -65.29 -133.14 289.64 164.4 348.17c-80.73,-72.17 -161.32,-144.58 -242.29,-216.47l-14.7 -205.77 -8.09 -39.21 -210.9 306.32 51.41 136.02c-69.38,18.93 -138.74,38.16 -208.05,57.37l29.07 -258.64 -336.99 176.67 98.8 151.58 -145.16 0 -33.45 -123.5 -127.89 99.15 77.46 -184.39 -335.41 444.43 -48.63 9.82 5.01 -6.94zm1391.67 457.92c-4.97,-7.01 -10.01,-13.94 -15.13,-20.8 -42.92,56.65 -81.76,120.16 -118.15,190.08l35.57 35.58c36.4,-63.08 75.49,-122.88 116.32,-177.79 -6.1,-9.14 -12.29,-18.17 -18.61,-27.07zm-48.49 -62.99c-10.58,-12.61 -21.48,-24.96 -32.77,-37.02 -50.25,52.06 -96.4,112.79 -138.22,183.08l37.14 37.15c40.66,-67.71 85.91,-129.13 133.85,-183.21zm-67.92 -72.43c-16.93,-16.07 -34.68,-31.59 -53.38,-46.52l-157.36 157.36 62.96 62.95c44.44,-66.36 94.54,-124.26 147.78,-173.79zm-27.04 -72.86c18.91,14.14 37.8,29.69 56.58,46.51 11.31,-9.67 22.71,-18.97 34.21,-27.91 -21.14,-15.5 -43.19,-29.89 -66.24,-43.14l-24.55 24.54zm91.51 79.34c11.03,10.87 22.01,22.16 32.93,33.84l0.05 0.06c12.03,-12.53 24.19,-24.62 36.47,-36.22 -10.88,-10.24 -22.03,-20.11 -33.44,-29.65 -12.21,10.22 -24.22,20.88 -36.01,31.97zm66.33 71.05c12.15,14.05 24.18,28.58 36.09,43.54 11.91,-14.96 23.95,-29.48 36.09,-43.53 -8.24,-9.83 -16.62,-19.43 -25.15,-28.79 -3.62,-3.97 -7.28,-7.88 -10.95,-11.75 -3.68,3.87 -7.3,7.78 -10.92,11.75 -8.54,9.36 -16.92,18.95 -25.16,28.78zm67.96 84.95c40.84,54.92 79.92,114.72 116.32,177.8l35.57 -35.58c-36.39,-69.91 -75.22,-133.43 -118.13,-190.07 -5.13,6.85 -10.18,13.78 -15.15,20.79 -6.32,8.9 -12.51,17.92 -18.61,27.06zm63.41 230.72c-30.63,-64.27 -61.58,-124.42 -95.28,-180.38 -33.7,55.96 -64.64,116.11 -95.27,180.38l95.27 95.27 95.28 -95.27zm-237.05 -518.22c24.3,13.21 48.65,28.38 72.85,45.42l9.58 -6.65c6.87,-4.72 13.78,-9.32 20.68,-13.77 -27.27,-16.22 -55.39,-30.78 -84.36,-43.76l-18.75 18.76zm109.32 72.61c10.88,8.55 21.7,17.48 32.45,26.76 10.75,-9.28 21.58,-18.21 32.44,-26.76 -10.67,-7.99 -21.49,-15.69 -32.45,-23.09 -10.96,7.4 -21.77,15.1 -32.44,23.09zm65.41 56.57c12.28,11.61 24.46,23.69 36.48,36.22l0.05 -0.06c10.92,-11.68 21.9,-22.97 32.94,-33.84 -11.8,-11.09 -23.81,-21.75 -36.03,-31.97 -11.41,9.54 -22.56,19.41 -33.44,29.65zm66.02 68.27c47.95,54.08 93.18,115.5 133.85,183.21l37.14 -37.15c-41.83,-70.29 -87.96,-131.02 -138.23,-183.08 -11.27,12.06 -22.18,24.4 -32.76,37.02zm-194.9 -243.31c31.88,13.17 64.02,28.91 95.93,47.26 31.91,-18.36 64.03,-34.1 95.91,-47.26l-95.92 -95.92 -95.92 95.92zm134.58 70.85c6.92,4.46 13.82,9.06 20.69,13.78 3.19,2.19 6.37,4.4 9.56,6.65 24.2,-17.04 48.57,-32.22 72.87,-45.42l-18.76 -18.76c-28.96,12.98 -57.1,27.53 -84.36,43.75zm64.48 45.78c11.5,8.94 22.92,18.23 34.22,27.89 18.77,-16.8 37.67,-32.35 56.57,-46.5l-24.54 -24.54c-23.06,13.25 -45.11,27.65 -66.25,43.15zm63.75 54.25c53.25,49.51 103.35,107.43 147.79,173.79l62.95 -62.95 -157.36 -157.36c-18.7,14.94 -36.45,30.45 -53.38,46.52zm223.51 110.84l379.02 378.99 -385.4 385.39 -384.02 -384.02 -384.02 384.02 -385.37 -385.39 378.99 -378.99 -378.99 -379.01 385.37 -385.39 384.02 384.02 384.02 -384.02 385.4 385.39 -379.02 379.01zm-1281.04 302.13c2.45,64.13 -21.56,84.65 -56.97,87.39 -19.11,1.47 -39.88,-4.01 -61.01,-9.59 -19.63,-5.19 -39.69,-10.49 -53.27,-8.35l-15.14 2.39 -7.69 -13.37c-29.04,-50.56 -78.21,-55.66 -125.86,-60.59 -85.39,-8.84 -167,-17.34 -174.47,-196.25 -6.36,43.09 -2.07,99.74 14.84,162.43 20.17,58.7 88.59,123.06 161.64,191.74 163.31,153.58 347.95,327.25 140.57,548.4l-39.3 41.91 0.54 -57.46c2.36,-252.89 -102.44,-331.6 -212.27,-414.08 -82.71,-62.1 -168.1,-126.23 -219.15,-259.98l-0.09 -0.43c-17.05,-47.5 -29.75,-97.16 -37.78,-147.11 -17.25,-107.19 -13.23,-216.26 14.54,-309.27 -41.46,47.28 -68.58,104.17 -81.7,170.26 -18.45,92.95 -9.64,204.24 25.46,332.82 28.53,95.59 77.53,156.51 126.61,217.52 75.16,93.42 150.56,187.16 162.38,397.57 30.08,0.23 71.55,0.08 103.51,-0.04l35.87 -0.1 0 44.82 -35.87 0.11c-40.69,0.14 -96.69,0.35 -125.38,-0.24l-21.24 -0.45 -0.73 -21.25c-7.25,-210.49 -80.51,-301.54 -153.51,-392.29 -51.89,-64.5 -103.69,-128.88 -134.65,-232.84l-0.09 -0.52c-37.11,-135.72 -46.28,-253.99 -26.48,-353.72 16.25,-81.87 51.79,-151.21 107.15,-207.47 -10.32,0.88 -20.24,2.7 -29.76,5.43 -36.11,10.35 -66.98,33.85 -91.33,66.95 -25.33,34.41 -43.7,79.13 -53.82,130.42 -15.34,77.74 -11.64,170.06 15.42,264.45l0.17 0.78c12.3,49.81 29.05,102.94 46.01,156.67 59.72,189.37 121.94,386.6 20.75,539.06l238.95 0 0 45 -335.18 0 33.7 -37.52c123.62,-137.61 59.88,-339.65 -1.1,-533 -16.9,-53.58 -33.61,-106.54 -46.52,-158.7 -29.08,-101.38 -32.96,-201.02 -16.31,-285.35 11.38,-57.72 32.46,-108.59 61.71,-148.35 30.24,-41.08 69.16,-70.42 115.25,-83.65 29.68,-8.49 62.11,-10.23 96.81,-4.03 37.36,-68.39 92.36,-121.14 166.53,-147.78 17.64,-6.34 36.33,-11.17 56.04,-14.35l30.58 -4.92 -4.92 30.58c-2.5,15.65 -6.91,32.62 -11.43,50.05 -11.02,42.55 -22.91,88.55 -4.58,100.54l201.23 120.12 1.79 10c6.97,39.01 30.86,77.25 64.38,115.01 34.99,39.39 80.64,78.36 128.92,117.17l8.52 6.84 -2.27 146.62zm-448.61 -273.47c-11.81,211.66 58.86,219.01 133.24,226.71 55.34,5.73 112.34,11.64 152.62,70.89 18.37,0.26 37.43,5.3 56.18,10.26 17.36,4.59 34.43,9.1 46.26,8.18 7.82,-0.61 13.56,-6.56 15.12,-23.72 -49.13,-5.07 -101.65,-27.72 -147.5,-58.02 -58.18,-38.44 -106.76,-90.12 -124.91,-134.44 -43.79,-59.17 -80.93,-89.65 -110.21,-98.16 -7.64,-2.22 -14.59,-2.72 -20.8,-1.7zm-139.66 -247.26l6.25 1.23 -12.68 9.88c-10.43,18.85 -19.35,39.11 -26.81,60.5 -31.52,90.4 -37.11,200.51 -19.6,309.16 7.57,47.13 19.51,93.91 35.52,138.59 46.56,121.78 126.58,181.89 204.09,240.08 109.67,82.35 214.7,161.25 228.67,388.19 111.58,-168.01 -40.24,-310.85 -175.87,-438.4 -77.66,-73.05 -150.41,-141.47 -173.76,-211.19l-0.43 -1.32c-24.79,-91.71 -24.48,-173.91 -4.46,-226.58 9.63,-25.39 23.97,-44.74 42.55,-56.35 19.65,-12.29 43.01,-15.56 69.47,-7.89 38.68,11.25 84.83,47.73 135.7,117.05l1.84 2.52 1.06 2.76c13.96,36.57 56.67,81.43 108.82,115.89 39.25,25.95 83.24,45.49 123.49,50.47l1.53 -99.22c-46.64,-37.77 -90.7,-75.98 -125.86,-115.58 -35.97,-40.51 -62.51,-82.4 -72.98,-126.57l-185.45 -110.64c-45.24,-29.55 -29.13,-91.81 -14.22,-149.41l3.29 -12.79c-5.1,1.5 -10.12,3.11 -15.02,4.88 -58.39,20.96 -103.13,61.64 -135.14,114.74zm2414.74 539.6c1.57,17.14 7.31,23.1 15.13,23.7 11.81,0.92 28.88,-3.58 46.25,-8.18 18.75,-4.95 37.82,-9.98 56.18,-10.24 40.27,-59.25 97.28,-65.17 152.62,-70.9 74.37,-7.69 145.05,-15.05 133.24,-226.7 -6.21,-1.02 -13.16,-0.51 -20.8,1.7 -29.29,8.51 -66.42,38.99 -110.22,98.16 -18.15,44.32 -66.72,96 -124.89,134.44 -45.85,30.3 -98.37,52.95 -147.51,58.02zm449.21 -217.22c-7.47,178.91 -89.06,187.41 -174.47,196.25 -47.65,4.93 -96.82,10.03 -125.84,60.59l-7.7 13.37 -15.15 -2.39c-13.57,-2.15 -33.64,3.16 -53.25,8.34 -21.14,5.58 -41.92,11.06 -61.01,9.59 -35.4,-2.74 -59.43,-23.24 -56.98,-87.38l-2.27 -146.63 8.53 -6.84c48.28,-38.81 93.94,-77.78 128.91,-117.16 33.52,-37.77 57.42,-76.01 64.39,-115.02l1.78 -10.01 201.24 -120.09c18.32,-12.01 6.42,-58.02 -4.6,-100.56 -4.5,-17.42 -8.9,-34.41 -11.41,-50.05l-4.91 -30.58 30.57 4.92c19.7,3.18 38.39,8.01 56.02,14.35 74.18,26.63 129.18,79.39 166.54,147.78 34.73,-6.2 67.14,-4.45 96.8,4.04 46.1,13.22 85.01,42.57 115.25,83.65 29.27,39.77 50.33,90.63 61.72,148.35 16.65,84.33 12.78,183.98 -16.3,285.36 -12.92,52.16 -29.64,105.1 -46.52,158.67 -61.01,193.37 -124.73,395.41 -1.11,533.01l33.7 37.53 -335.19 0 0 -45 238.96 0c-101.19,-152.47 -38.98,-349.7 20.76,-539.08 16.94,-53.73 33.7,-106.84 45.99,-156.65l0.18 -0.78c27.07,-94.39 30.77,-186.7 15.42,-264.46 -10.12,-51.28 -28.5,-95.99 -53.82,-130.42 -24.35,-33.09 -55.22,-56.59 -91.34,-66.95 -9.5,-2.72 -19.43,-4.54 -29.74,-5.42 55.35,56.26 90.89,125.6 107.13,207.46 19.8,99.73 10.64,218 -26.47,353.72l-0.08 0.53c-30.96,103.95 -82.77,168.34 -134.66,232.84 -73,90.74 -146.26,181.79 -153.5,392.28l-0.75 21.24 -21.22 0.46c-28.73,0.6 -84.87,0.39 -125.58,0.25l-35.69 -0.11 0 -44.82 35.69 0.1c31.98,0.12 73.57,0.27 103.69,0.03 11.83,-210.41 87.23,-304.14 162.39,-397.56 49.08,-61.01 98.09,-121.93 126.57,-217.54 35.15,-128.58 43.95,-239.87 25.5,-332.81 -13.11,-66.1 -40.25,-122.95 -81.7,-170.23 27.77,93.01 31.8,202.06 14.54,309.26 -8.03,49.95 -20.72,99.61 -37.78,147.09l-0.08 0.43c-51.07,133.76 -136.44,197.88 -219.16,259.99 -109.83,82.47 -214.63,161.18 -212.27,414.07l0.54 57.46 -39.3 -41.91c-207.38,-221.16 -22.74,-394.82 140.57,-548.4 73.04,-68.69 141.46,-133.04 161.63,-191.73 16.92,-62.7 21.21,-119.35 14.84,-162.43zm100.29 -311.25l-12.67 -9.88 6.26 -1.23c-32.02,-53.11 -76.78,-93.79 -135.16,-114.75 -4.9,-1.77 -9.9,-3.39 -15.01,-4.88l3.28 12.79c14.91,57.6 31.02,119.86 -14.21,149.41l-185.45 110.64c-10.47,44.17 -37,86.07 -72.98,126.58 -35.15,39.59 -79.2,77.8 -125.86,115.58l1.53 99.22c40.25,-4.98 84.24,-24.53 123.51,-50.48 52.12,-34.45 94.83,-79.31 108.8,-115.89l1.05 -2.75 1.85 -2.52c50.87,-69.32 97.01,-105.8 135.7,-117.05 26.45,-7.68 49.83,-4.4 69.47,7.89 18.52,11.58 32.87,30.93 42.51,56.27 20.07,52.69 20.39,134.92 -4.43,226.66l-0.43 1.32c-23.35,69.72 -96.09,138.13 -173.76,211.18 -135.62,127.55 -287.43,270.38 -175.85,438.4 13.97,-226.95 119,-305.84 228.66,-388.18 77.52,-58.2 157.53,-118.3 204.03,-240.11 16.08,-44.64 28.01,-91.43 35.6,-138.56 17.48,-108.65 11.91,-218.75 -19.63,-309.17 -7.46,-21.38 -16.39,-41.64 -26.81,-60.49z"/>
     <path class="fil0" d="M3424.14 2752.19c0,46.5 -15.49,83.31 -46.49,110.43 -31,27.12 -76.14,42.7 -135.44,46.74l0 39.42 -109.16 0 0 -39.92c-59.63,-5.05 -104.86,-20.89 -135.69,-47.51 -30.83,-26.61 -46.24,-63 -46.24,-109.16 0,-46.15 15.41,-82.46 46.24,-108.9 30.83,-26.45 76.06,-42.2 135.69,-47.25l0 -36.9 109.16 0 0 36.9c59.63,4.37 104.87,19.96 135.69,46.74 30.83,26.79 46.24,63.26 46.24,109.41zm-181.93 64.19c23.59,-3.37 40.6,-10.2 51.04,-20.47 10.45,-10.28 15.67,-25.02 15.67,-44.22 0,-18.87 -5.31,-33.36 -15.92,-43.46 -10.61,-10.11 -27.54,-16.85 -50.79,-20.22l0 128.37zm-175.87 -64.19c0,18.53 5.48,32.85 16.43,42.96 10.95,10.11 27.71,17.01 50.28,20.72l0 -127.35c-23.92,3.37 -41.02,10.02 -51.29,19.96 -10.28,9.94 -15.42,24.51 -15.42,43.71z"/>
     <polygon id="_1_0" class="fil0" points="3960.34,2576.83 3960.34,2930.59 3466.59,2930.59 3466.59,2576.83 3583.84,2576.83 3583.84,2838.11 3655.1,2838.11 3655.1,2576.83 3772.34,2576.83 3772.34,2838.11 3843.09,2838.11 3843.09,2576.83 "/>
     <polygon id="_2_1" class="fil0" points="4270.13,2748.66 4374.74,2930.59 4240.31,2930.59 4172.59,2802.73 4139.24,2802.73 4139.24,2930.59 4019.97,2930.59 4019.97,2576.83 4139.24,2576.83 4139.24,2708.73 4175.62,2708.73 4250.92,2576.83 4375.25,2576.83 "/>
     <path id="_3_2" class="fil0" d="M4569.81 2576.83c32.68,0 61.15,5.39 85.41,16.17 24.26,10.78 42.96,26.28 56.1,46.5 13.14,20.21 19.71,43.8 19.71,70.75 0,26.95 -6.57,50.54 -19.71,70.75 -13.14,20.22 -31.84,35.71 -56.1,46.49 -24.26,10.79 -52.73,16.18 -85.41,16.18l-51.04 0 0 86.92 -119.27 0 0 -353.76 170.31 0zm-7.58 174.86c16.17,0 28.3,-3.62 36.39,-10.87 8.08,-7.24 12.13,-17.43 12.13,-30.57 0,-13.14 -4.05,-23.33 -12.13,-30.58 -8.09,-7.24 -20.22,-10.86 -36.39,-10.86l-43.46 0 0 82.88 43.46 0z"/>
    </g>
   </g>
   <rect class="fil2" x="-5.63" y="7.38" width="7693.38" height="4608.06"/>
  </g>
 </g>
</svg>
